<svg width="167" height="44" viewBox="0 0 167 44" fill="none" xmlns="http://www.w3.org/2000/svg">
<path d="M66.1873 14.3783C68.2702 14.3783 69.9533 15.1146 71.2368 16.5874C72.5412 18.0602 73.1934 19.9958 73.1934 22.3943C73.1934 24.7717 72.5307 26.7073 71.2052 28.2011C69.8797 29.6739 68.165 30.4103 66.0611 30.4103C64.967 30.4103 63.9887 30.1683 63.1261 29.6844C62.2635 29.2005 61.6323 28.5904 61.2325 27.854V30H56.404V7.8771H61.2325V16.9661C61.6323 16.2087 62.2845 15.588 63.1892 15.1041C64.0939 14.6202 65.0933 14.3783 66.1873 14.3783ZM64.6725 26.4023C65.7244 26.4023 66.587 26.0341 67.2603 25.2977C67.9336 24.5403 68.2702 23.5725 68.2702 22.3943C68.2702 21.2161 67.9336 20.2588 67.2603 19.5224C66.587 18.786 65.7244 18.4178 64.6725 18.4178C63.5784 18.4178 62.6948 18.786 62.0215 19.5224C61.3482 20.2588 61.0116 21.2161 61.0116 22.3943C61.0116 23.5935 61.3482 24.5613 62.0215 25.2977C62.7158 26.0341 63.5995 26.4023 64.6725 26.4023ZM74.204 30V14.7885H79.0326V17.976C79.285 16.882 79.8005 16.0404 80.579 15.4513C81.3785 14.8411 82.2621 14.5361 83.2299 14.5361C83.7349 14.5361 84.1557 14.5781 84.4923 14.6623V19.1437C83.9242 19.0806 83.4403 19.049 83.0406 19.049C80.3686 19.049 79.0326 20.7427 79.0326 24.13V30H74.204ZM90.8517 30.4103C88.6426 30.4103 86.8963 29.6634 85.6129 28.1696C84.3295 26.6758 83.6878 24.7507 83.6878 22.3943C83.6878 20.0799 84.3505 18.1654 85.676 16.6505C87.0015 15.1357 88.7478 14.3783 90.9148 14.3783C91.9878 14.3783 92.9451 14.6097 93.7867 15.0726C94.6283 15.5354 95.2594 16.1666 95.6802 16.9661V14.7885H100.477V30H95.6802V27.854C95.2594 28.6114 94.6072 29.2321 93.7236 29.716C92.861 30.1788 91.9037 30.4103 90.8517 30.4103ZM92.2403 26.4023C93.3975 26.4023 94.2916 26.0236 94.9228 25.2661C95.554 24.5087 95.8696 23.5514 95.8696 22.3943C95.8696 21.2581 95.554 20.3114 94.9228 19.554C94.2916 18.7965 93.3975 18.4178 92.2403 18.4178C91.1462 18.4178 90.2626 18.786 89.5893 19.5224C88.9371 20.2588 88.611 21.2161 88.611 22.3943C88.611 23.5725 88.9371 24.5403 89.5893 25.2977C90.2626 26.0341 91.1462 26.4023 92.2403 26.4023ZM102.592 30V14.7885H107.421V16.9977C108.326 15.2514 109.967 14.3783 112.344 14.3783C116.047 14.3783 117.899 16.4506 117.899 20.5954V30H113.038V22.1734C113.038 20.8689 112.828 19.9221 112.407 19.333C112.008 18.7439 111.324 18.4494 110.356 18.4494C108.399 18.4494 107.421 19.6486 107.421 22.0471V30H102.592ZM130.725 7.90866H135.553V30H130.756V27.854C130.336 28.6114 129.683 29.2321 128.8 29.716C127.937 30.1788 126.98 30.4103 125.928 30.4103C123.719 30.4103 121.972 29.6634 120.689 28.1696C119.406 26.6758 118.764 24.7507 118.764 22.3943C118.764 20.0799 119.427 18.1654 120.752 16.6505C122.078 15.1357 123.824 14.3783 125.991 14.3783C127.064 14.3783 128.021 14.6097 128.863 15.0726C129.704 15.5354 130.336 16.1666 130.756 16.9661V15.6722H130.725V7.90866ZM127.316 26.4023C128.474 26.4023 129.368 26.0236 129.999 25.2661C130.63 24.5087 130.946 23.5514 130.946 22.3943C130.946 21.2581 130.63 20.3114 129.999 19.554C129.368 18.7965 128.474 18.4178 127.316 18.4178C126.222 18.4178 125.339 18.786 124.665 19.5224C124.013 20.2588 123.687 21.2161 123.687 22.3943C123.687 23.5725 124.013 24.5403 124.665 25.2977C125.339 26.0341 126.222 26.4023 127.316 26.4023ZM155.358 14.3783C159.061 14.3783 160.913 16.4506 160.913 20.5954V30H156.052V22.1734C156.052 20.8689 155.842 19.9221 155.421 19.333C155.022 18.7439 154.338 18.4494 153.37 18.4494C151.413 18.4494 150.435 19.6486 150.435 22.0471V30H145.606V7.90866H150.435V16.9977C151.34 15.2514 152.981 14.3783 155.358 14.3783Z" fill="#0D114F"/>
<path d="M142.813 29.4004C142.224 30.0105 141.487 30.3156 140.604 30.3156C139.72 30.3156 138.973 30.0105 138.363 29.4004C137.774 28.7902 137.479 28.0644 137.479 27.2228C137.479 26.3602 137.774 25.6343 138.363 25.0452C138.973 24.4351 139.72 24.13 140.604 24.13C141.487 24.13 142.224 24.4351 142.813 25.0452C143.423 25.6343 143.728 26.3602 143.728 27.2228C143.728 28.0644 143.423 28.7902 142.813 29.4004Z" fill="url(#paint0_linear)"/>
<rect width="43.832" height="43.832" rx="7.88976" fill="url(#paint1_linear)"/>
<circle cx="28.5" cy="13.5" r="2.5" fill="#FAFAFA"/>
<path d="M23.7833 17.5012C25.8662 17.5012 27.5494 18.2375 28.8328 19.7103C30.1372 21.1831 30.7894 23.1187 30.7894 25.5172C30.7894 27.8946 30.1267 29.8302 28.8012 31.324C27.4757 32.7968 25.761 33.5332 23.6571 33.5332C22.563 33.5332 21.5847 33.2912 20.7221 32.8073C19.8595 32.3234 19.2283 31.7133 18.8285 30.9769V33.1229H14V11H18.8285V20.089C19.2283 19.3316 19.8805 18.7109 20.7852 18.227C21.6899 17.7431 22.6893 17.5012 23.7833 17.5012ZM23.2685 29.5252C24.3204 29.5252 25.1831 29.157 25.8563 28.4206C26.5296 27.6632 26.8662 26.6954 26.8662 25.5172C26.8662 24.339 26.5296 23.3817 25.8563 22.6453C25.1831 21.9089 24.3204 21.5407 23.2685 21.5407C22.1744 21.5407 21.2908 21.9089 20.6175 22.6453C19.9443 23.3817 19.6076 24.339 19.6076 25.5172C19.6076 26.7164 19.9443 27.6842 20.6175 28.4206C21.3118 29.157 22.1955 29.5252 23.2685 29.5252Z" fill="#FAFAFA"/>
<defs>
<linearGradient id="paint0_linear" x1="189.169" y1="-59.0291" x2="177.57" y2="54.1337" gradientUnits="userSpaceOnUse">
<stop stop-color="#5498FF"/>
<stop offset="0.515625" stop-color="#428EFF"/>
<stop offset="1" stop-color="#297FFF"/>
</linearGradient>
<linearGradient id="paint1_linear" x1="52.463" y1="-66.3077" x2="19.6129" y2="48.5381" gradientUnits="userSpaceOnUse">
<stop stop-color="#5498FF"/>
<stop offset="0.515625" stop-color="#428EFF"/>
<stop offset="1" stop-color="#297FFF"/>
</linearGradient>
</defs>
</svg>
