<svg id="Layer_1" data-name="Layer 1" xmlns="http://www.w3.org/2000/svg" viewBox="0 0 20.33 17"><defs><style>.cls-1{fill:none;stroke:#3485ff;stroke-linecap:round;stroke-linejoin:round;stroke-width:2px;}</style></defs><path class="cls-1" d="M14.17,17.5V15.83a3.35,3.35,0,0,0-3.34-3.33H4.17A3.35,3.35,0,0,0,.83,15.83V17.5" transform="translate(0.17 -1.5)"/><path class="cls-1" d="M7.5,9.17A3.34,3.34,0,1,0,4.17,5.83,3.34,3.34,0,0,0,7.5,9.17Z" transform="translate(0.17 -1.5)"/><path class="cls-1" d="M19.17,17.5V15.83a3.32,3.32,0,0,0-2.5-3.22" transform="translate(0.17 -1.5)"/><path class="cls-1" d="M13.33,2.61a3.32,3.32,0,0,1,1.81,1.18,3.39,3.39,0,0,1,.7,2.05,3.34,3.34,0,0,1-2.51,3.23" transform="translate(0.17 -1.5)"/></svg>